<svg xmlns="http://www.w3.org/2000/svg" viewBox="0 0 1024 1024">
  <rect width="1024" height="1024" fill="#fff"/>
  <path
    fill="#007a4d"
    d="M430 214h384v146l-44-48v-54H535v59l-45-10v-49h-60V214Zm149 76h43c61 0 112 17 153 50 43 34 64 84 64 149 0 64-21 113-63 148-41 34-92 51-154 51H457v-45h159c49 0 89-13 120-40 32-27 48-65 48-114 0-50-16-89-49-116-31-26-72-39-121-39h-35v-44Zm-89 154h45v118h186l-44 44H490V444Zm-33 239h167c60 0 110-15 151-44 41-30 70-69 87-117v292H457v-47h314v-74c-42 24-92 36-150 36H457v-46Z"
  />
  <path
    fill="#000"
    d="M346 214h45v67h49l37 26 55 12 21 101H430v390H307V420H185l20-81 55-11 41-18 40-29h5V214Zm-5 100c-23 23-47 38-72 45l-38 7-6 22h82v-74h34Zm-1 106v346h46V314h-46v74h45v32h-45Zm90-106v74h82l-6-22-38-8c-25-7-49-21-72-44h34Z"
  />
</svg>
